# xmcd
#
# Track frame offsets:
# 151
# 22596
# 42867
# 60909
# 90672
# 122425
# 131978
# 146226
# 161117
# 191756
# 211804
# 233125
# 257820
# 307258
#
# Disc length: 4409 seconds
#
#
# Revision: 0
# Processed by: cddbd v1.5.2PL0 Copyright (c) Steve Scherf et al.
# Submitted via: FreeRIP 2.90 
#
DISCID=c311370e
DTITLE=Benedict Gospel Choir - Gospel
DYEAR=2006
DGENRE=Gospel
TTITLE0=Oh happy day
TTITLE1=Praise the Lord
TTITLE2=No one can do me like Jesus
TTITLE3=Holy, Holy, Holy
TTITLE4=Jesus, Jesus
TTITLE5=Carol the bells
TTITLE6=Walk and the talk
TTITLE7=You won't find a man
TTITLE8=Put all my trust
TTITLE9=The night thatChrist was born
TTITLE10=Oh come all ye faithful
TTITLE11=Now beholdthe lamb
TTITLE12=Total praise
TTITLE13=Say the word
EXTD=Director Darryl Izzard
EXTT0=Edwin Hawkins
EXTT1=Tradizionale
EXTT2=Gary Davis
EXTT3=Tradizionale
EXTT4=Tradizionale
EXTT5=M. Leontovich
EXTT6=Tradizionale
EXTT7=Tradizionale
EXTT8=K. Staley e R. Skeeters
EXTT9=Tradizionale
EXTT10=Frederick Oakeley
EXTT11=Kirk Franklin
EXTT12=Richard Smallwood
EXTT13=Tradizionale
PLAYORDER=
